<svg width="606" height="539" xmlns="http://www.w3.org/2000/svg" xmlns:xlink="http://www.w3.org/1999/xlink" xml:space="preserve" overflow="hidden"><g transform="translate(-2797 -488)"><path d="M3148.85 519.492C3183.01 517.208 3217.4 523.014 3249.73 534.059 3279.32 544.41 3307.58 559.524 3331.01 580.631 3344.94 593.545 3357.62 608.555 3364.53 626.511 3369.77 639.879 3370.92 655.355 3365.18 668.764 3359.88 681.74 3349.07 691.544 3337.27 698.538 3319.85 708.776 3299.87 713.673 3279.97 715.915 3237.42 720.099 3194.24 711.938 3154.87 695.677 3127.2 683.93 3100.99 667.742 3080.19 645.757 3068.24 632.678 3057.66 617.533 3053.57 599.991 3050.34 586.788 3052.04 572.252 3059.19 560.599 3067.23 547.406 3080.44 538.253 3094.28 532.034 3111.46 524.378 3130.17 520.711 3148.85 519.492M3180.93 556.084C3168.06 557.531 3155.28 561.466 3144.51 568.833 3133.96 576.147 3125.94 587.811 3124.78 600.859 3123.36 614.454 3128.78 627.833 3136.84 638.515 3149.48 655.251 3167.97 666.74 3187.52 673.579 3209.51 681.1 3233.86 683.311 3256.36 676.73 3269.62 672.742 3282.58 665.345 3290.05 653.268 3297.75 641.614 3298.24 626.232 3293.17 613.442 3286.8 597.171 3273.85 584.401 3259.51 574.99 3236.3 560.361 3208.24 553.264 3180.93 556.084Z" fill-rule="evenodd"/><path d="M2878.3 724.125C3041.7 588.708 3205.1 859.542 3368.5 724.125L3317.7 967.875C3154.3 1103.29 2990.9 832.458 2827.5 967.875Z" stroke="#000000" stroke-width="38.9583" stroke-miterlimit="8" fill-rule="evenodd"/><path d="M3041.16 571.806C3057.57 514.804 3147 490.517 3240.91 517.56 3334.81 544.602 3397.62 612.733 3381.21 669.735 3364.79 726.736 3275.36 751.023 3181.46 723.981 3087.56 696.939 3024.74 628.808 3041.16 571.806Z" stroke="#000000" stroke-width="36.6667" stroke-miterlimit="8" fill="none" fill-rule="evenodd"/></g></svg>