<svg width="606" height="540" xmlns="http://www.w3.org/2000/svg" xmlns:xlink="http://www.w3.org/1999/xlink" xml:space="preserve" overflow="hidden"><g transform="translate(-2797 -1634)"><path d="M3148.85 1665.49C3183.01 1663.21 3217.4 1669.01 3249.73 1680.06 3279.32 1690.41 3307.58 1705.52 3331.01 1726.63 3344.94 1739.54 3357.62 1754.56 3364.53 1772.51 3369.77 1785.88 3370.92 1801.35 3365.18 1814.76 3359.88 1827.74 3349.07 1837.54 3337.27 1844.54 3319.85 1854.78 3299.87 1859.67 3279.97 1861.92 3237.42 1866.1 3194.24 1857.94 3154.87 1841.68 3127.2 1829.93 3100.99 1813.74 3080.19 1791.76 3068.24 1778.68 3057.66 1763.53 3053.57 1745.99 3050.34 1732.79 3052.04 1718.25 3059.19 1706.6 3067.23 1693.41 3080.44 1684.25 3094.28 1678.03 3111.46 1670.38 3130.17 1666.71 3148.85 1665.49M3180.93 1702.08C3168.06 1703.53 3155.28 1707.47 3144.51 1714.83 3133.96 1722.15 3125.94 1733.81 3124.78 1746.86 3123.36 1760.45 3128.78 1773.83 3136.84 1784.52 3149.48 1801.25 3167.97 1812.74 3187.52 1819.58 3209.51 1827.1 3233.86 1829.31 3256.36 1822.73 3269.62 1818.74 3282.58 1811.34 3290.05 1799.27 3297.75 1787.61 3298.24 1772.23 3293.17 1759.44 3286.8 1743.17 3273.85 1730.4 3259.51 1720.99 3236.3 1706.36 3208.24 1699.26 3180.93 1702.08Z" fill="#FFFFFF" fill-rule="evenodd"/><path d="M2878.3 1871.12C3041.7 1735.71 3205.1 2006.54 3368.5 1871.12L3317.7 2114.88C3154.3 2250.29 2990.9 1979.46 2827.5 2114.88Z" stroke="#FFFFFF" stroke-width="38.9583" stroke-miterlimit="8" fill="#FFFFFF" fill-rule="evenodd"/><path d="M3041.16 1718.45C3057.57 1661.45 3147 1637.16 3240.91 1664.21 3334.81 1691.25 3397.62 1759.38 3381.21 1816.38 3364.79 1873.38 3275.36 1897.67 3181.46 1870.63 3087.56 1843.59 3024.74 1775.45 3041.16 1718.45Z" stroke="#FFFFFF" stroke-width="36.6667" stroke-miterlimit="8" fill="none" fill-rule="evenodd"/></g></svg>