<svg width="1881" height="539" xmlns="http://www.w3.org/2000/svg" xmlns:xlink="http://www.w3.org/1999/xlink" xml:space="preserve" overflow="hidden"><defs><clipPath id="clip0"><rect x="2797" y="488" width="1881" height="539"/></clipPath></defs><g clip-path="url(#clip0)" transform="translate(-2797 -488)"><path d="M3148.85 519.492C3183.01 517.208 3217.4 523.014 3249.73 534.059 3279.32 544.41 3307.58 559.524 3331.01 580.631 3344.94 593.545 3357.62 608.555 3364.53 626.511 3369.77 639.879 3370.92 655.355 3365.18 668.764 3359.88 681.74 3349.07 691.544 3337.27 698.538 3319.85 708.776 3299.87 713.673 3279.97 715.915 3237.42 720.099 3194.24 711.938 3154.87 695.677 3127.2 683.93 3100.99 667.742 3080.19 645.757 3068.24 632.678 3057.66 617.533 3053.57 599.991 3050.34 586.788 3052.04 572.252 3059.19 560.599 3067.23 547.406 3080.44 538.253 3094.28 532.034 3111.46 524.378 3130.17 520.711 3148.85 519.492M3180.93 556.084C3168.06 557.531 3155.28 561.466 3144.51 568.833 3133.96 576.147 3125.94 587.811 3124.78 600.859 3123.36 614.454 3128.78 627.833 3136.84 638.515 3149.48 655.251 3167.97 666.74 3187.52 673.579 3209.51 681.1 3233.86 683.311 3256.36 676.73 3269.62 672.742 3282.58 665.345 3290.05 653.268 3297.75 641.614 3298.24 626.232 3293.17 613.442 3286.8 597.171 3273.85 584.401 3259.51 574.99 3236.3 560.361 3208.24 553.264 3180.93 556.084Z" fill-rule="evenodd"/><path d="M2878.3 724.125C3041.7 588.708 3205.1 859.542 3368.5 724.125L3317.7 967.875C3154.3 1103.29 2990.9 832.458 2827.5 967.875Z" stroke="#000000" stroke-width="38.9583" stroke-miterlimit="8" fill-rule="evenodd"/><path d="M3041.16 571.806C3057.57 514.804 3147 490.517 3240.91 517.56 3334.81 544.602 3397.62 612.733 3381.21 669.735 3364.79 726.736 3275.36 751.023 3181.46 723.981 3087.56 696.939 3024.74 628.808 3041.16 571.806Z" stroke="#000000" stroke-width="36.6667" stroke-miterlimit="8" fill="none" fill-rule="evenodd"/><path d="M3691.54 656.702C3699.83 655.781 3708.47 655.461 3716.59 657.672 3719.16 658.152 3721.1 660.343 3720.92 662.984 3720.97 727.355 3720.95 791.726 3720.93 856.098 3721.65 860.339 3716.94 861.82 3713.61 862.24 3705.74 863.25 3697.66 863.29 3689.8 862.14 3686.6 861.74 3682.47 860.019 3683.06 856.148 3683.04 791.766 3683.02 727.385 3683.07 663.004 3682.74 658.472 3687.98 657.182 3691.54 656.702Z" fill-rule="evenodd"/><path d="M3619.67 661.6C3627.02 660.732 3634.92 660.412 3641.85 663.435 3647.98 666.289 3648.89 673.951 3649 679.917 3648.91 686.013 3648.31 693.616 3642.51 697.118 3636.32 700.32 3629.04 700.191 3622.25 699.802 3616.82 699.343 3610.09 697.946 3607.95 692.199 3605.31 684.966 3605.4 676.645 3607.94 669.392 3609.68 664.503 3614.85 662.218 3619.67 661.6Z" fill-rule="evenodd"/><path d="M3512.48 667.578C3530 665.7 3548.36 668.308 3563.98 676.699 3568.53 678.847 3569.86 684.072 3569.81 688.687 3569.87 695.221 3570.59 702.094 3568.26 708.338 3566.86 711.315 3563.03 710.186 3560.85 708.798 3549.57 702.394 3537.08 696.959 3523.86 697.239 3516.38 697.249 3508.26 699.157 3503.16 704.991 3497.29 712.014 3497.19 723.403 3503.4 730.266 3507.67 735.211 3513.5 738.408 3519.26 741.315 3532.96 747.859 3547.5 753.034 3559.89 762.005 3570.53 769.777 3578.43 781.595 3580.3 794.742 3582.41 809.568 3579.89 825.512 3571.12 837.92 3562.71 850.417 3548.91 858.37 3534.49 862.006 3514.09 867.111 3492.11 865.652 3472.58 857.9 3468.07 856.002 3463.6 853.754 3459.87 850.567 3456.43 847.271 3456.29 842.106 3456.05 837.67 3456 832.195 3455.7 826.531 3457.39 821.246 3457.93 818.909 3460.54 817.42 3462.83 818.199 3465.58 819.048 3467.92 820.777 3470.38 822.205 3484.57 830.657 3501.42 835.422 3517.97 833.105 3525.2 832.016 3532.55 828.779 3536.82 822.615 3540.14 817.6 3541.28 811.246 3540.26 805.352 3539.31 799.957 3535.48 795.632 3531.32 792.325 3522.37 785.522 3511.61 781.875 3501.57 777.05 3493.24 773.034 3484.76 768.958 3477.69 762.904 3466.63 753.903 3459.68 740.017 3459.36 725.741 3458.5 711.565 3462.42 696.69 3472.31 686.17 3482.46 674.781 3497.63 669.277 3512.48 667.578Z" fill-rule="evenodd"/><path d="M4172.36 684.821C4177.39 683.719 4182.67 683.839 4187.77 684.52 4190.13 684.841 4193.2 686.214 4192.89 689.09 4193.05 699.543 4192.93 710.007 4192.97 720.459 4204.49 720.49 4216.01 720.469 4227.52 720.61 4230.41 720.53 4231.33 723.837 4231.67 726.142 4232.13 730.201 4232.35 734.581 4230.65 738.399 4229.87 740.383 4227.61 741.005 4225.69 740.864 4214.79 740.884 4203.89 740.975 4192.98 740.945 4192.87 763.775 4192.94 786.615 4192.92 809.455 4192.9 818.395 4192.61 827.916 4196.99 836.023 4199.95 841.566 4206.75 843.45 4212.62 843.099 4217.91 843.029 4222.75 840.734 4227.67 839.13 4231.44 838.168 4231.62 843.049 4231.88 845.544 4231.95 850.024 4232.55 855.516 4229.13 858.984 4224.07 862.612 4217.57 863.063 4211.58 863.855 4201.24 864.476 4189.97 863.283 4181.51 856.719 4174.75 851.528 4171.26 843.179 4169.88 834.951 4168.07 825.21 4168.68 815.258 4168.56 805.406 4168.56 783.909 4168.56 762.422 4168.56 740.935 4162.29 740.814 4156.02 740.975 4149.76 740.764 4147.3 740.784 4145.99 738.319 4145.57 736.214 4144.72 732.085 4144.77 727.695 4146.03 723.646 4146.41 721.943 4147.93 720.54 4149.73 720.61 4156.01 720.369 4162.28 720.49 4168.56 720.429 4168.62 709.986 4168.49 699.543 4168.61 689.111 4168.33 686.795 4170.28 685.192 4172.36 684.821Z" fill-rule="evenodd"/><path d="M3947.79 716.602C3963.86 714.889 3981.15 716.522 3995.02 725.537 4006.88 733.059 4014.74 745.89 4017.63 759.552 4019.81 768.687 4020.19 778.143 4019.93 787.508 4019.8 790.883 4019.14 794.559 4016.63 797.003 4014.45 799.307 4011.17 799.978 4008.14 799.978 3981.63 800.048 3955.13 800.059 3928.63 800.068 3928.8 808.853 3930.18 818.168 3935.62 825.35 3940.7 832.091 3949.03 835.496 3957.2 836.438 3972.97 838.121 3988.89 834.915 4003.57 829.156 4006.24 828.315 4010.16 826.622 4012.29 829.346 4014.28 833.433 4013.68 838.211 4013.77 842.628 4013.57 847.205 4013.72 853.155 4009.08 855.659 4000.09 860.157 3990.06 862.02 3980.24 863.632 3963.47 865.916 3945.99 865.676 3929.8 860.317 3915.81 855.599 3903.77 845.002 3897.95 831.269 3891.79 816.936 3890.46 800.99 3891.17 785.535 3891.95 768.677 3896.52 751.379 3907.24 738.097 3917.09 725.697 3932.25 718.305 3947.79 716.602M3938.98 748.995C3931.72 755.826 3929.18 766.203 3928.69 775.859 3947.14 775.839 3965.6 775.879 3984.06 775.849 3984.2 767.956 3983.21 759.682 3978.89 752.891 3975.91 747.983 3970.83 744.598 3965.31 743.266 3956.31 741.112 3945.93 742.444 3938.98 748.995Z" fill-rule="evenodd"/><path d="M4105.12 718.87C4113.36 714.913 4123.25 715.315 4131.68 718.449 4135.76 719.905 4135.59 724.927 4135.84 728.484 4135.89 736.138 4136.6 744.023 4134.54 751.487 4133.88 754.189 4130.77 754.882 4128.49 753.867 4122.42 751.848 4115.64 749.558 4109.43 752.431 4099.91 756.76 4093.96 765.911 4088.41 774.359 4088.44 801.611 4088.42 828.873 4088.4 856.125 4088.83 859.099 4086.21 861.268 4083.53 861.751 4076.33 863.368 4068.84 863.107 4061.52 862.665 4058.07 862.172 4053.83 862.122 4051.54 859.059 4050.74 856.798 4051.1 854.337 4051.02 851.987 4051.07 809.788 4051.02 767.589 4051.04 725.39 4050.73 723.009 4052.12 720.598 4054.51 719.975 4061.02 717.987 4068.01 718.348 4074.73 718.86 4077.71 719.312 4082.04 719.734 4082.72 723.371 4083.28 729.136 4082.98 734.952 4082.99 740.748 4089.15 732.391 4095.71 723.742 4105.12 718.87Z" fill-rule="evenodd"/><path d="M3616.86 719.737C3624.22 718.755 3631.76 718.695 3639.09 719.917 3642.15 720.487 3646.41 722.009 3645.97 725.913 3646.02 768.969 3645.95 812.025 3646 855.091 3645.93 856.893 3646.16 859.185 3644.38 860.276 3641.12 862.458 3637.01 862.559 3633.24 862.859 3627.01 863.049 3620.68 863.259 3614.56 861.948 3612.19 861.357 3608.88 860.226 3609.09 857.183 3608.92 814.107 3609.11 771.031 3609 727.955 3609.08 726.123 3608.81 724.081 3609.95 722.509 3611.84 720.788 3614.43 720.197 3616.86 719.737Z" fill-rule="evenodd"/><path d="M3743.02 724.05C3743.58 720.587 3747.75 719.986 3750.59 719.526 3759.18 718.925 3767.99 718.465 3776.45 720.346 3779.26 720.817 3780.81 723.39 3781.52 725.942 3791.77 759.057 3801.91 792.211 3812.17 825.315 3822.22 791.951 3832.35 758.616 3842.46 725.262 3843.03 722.869 3844.78 720.807 3847.28 720.357 3855.08 718.505 3863.22 718.945 3871.17 719.446 3874.08 719.786 3878.29 720.377 3878.96 723.89 3879.24 728.565 3877.84 733.15 3876.49 737.574 3863.41 777.065 3850.43 816.596 3837.31 856.077 3836.39 859.671 3832.85 861.613 3829.42 862.053 3821.49 863.265 3813.43 862.964 3805.43 862.974 3799.88 862.714 3794.09 862.864 3788.84 860.762 3786.16 859.711 3785.11 856.758 3784.2 854.275 3771.42 815.555 3758.67 776.825 3745.88 738.105 3744.47 733.55 3742.78 728.895 3743.02 724.05Z" fill-rule="evenodd"/><path d="M4271.61 725.725C4289.08 718.217 4308.9 716.001 4327.56 719.875 4337.41 721.981 4347.23 726.844 4352.9 735.42 4360.18 745.854 4361.03 759.083 4361 771.384 4360.96 800.019 4361.04 828.654 4360.96 857.279 4361.19 861.542 4355.88 861.961 4352.76 862.111 4348.65 861.981 4343.44 862.83 4340.32 859.635 4339.2 854.802 4339.95 849.71 4339.7 844.778 4329.97 854.483 4317.58 862.211 4303.61 863.669 4289.42 865.006 4273.8 862.48 4262.91 852.686 4250.44 841.244 4248.03 821.734 4254.43 806.608 4259.46 795.116 4270.77 787.778 4282.49 784.203 4299.93 778.542 4318.51 779.481 4336.61 779.371 4336.48 768.987 4337.6 757.625 4331.8 748.41 4326.76 740.382 4316.55 737.916 4307.6 737.797 4293.55 737.148 4280.02 742.369 4268.06 749.288 4265.99 750.377 4263.75 751.884 4261.29 751.365 4258.23 750.097 4257.81 746.413 4257.65 743.547 4257.54 739.753 4257.3 735.231 4260.36 732.405 4263.55 729.37 4267.68 727.603 4271.61 725.725M4285.82 803.673C4272.95 811.511 4272.85 833.047 4285.62 841.034 4292.35 845.267 4300.87 845.697 4308.53 844.239 4320 841.833 4328.85 833.456 4336.61 825.239 4336.58 815.854 4336.6 806.478 4336.6 797.093 4329.58 797.083 4322.56 796.953 4315.54 797.013 4305.39 797.163 4294.56 798.002 4285.82 803.673Z" fill-rule="evenodd"/><path d="M4457.56 720.753C4466.96 717.321 4477.27 717.422 4486.98 719.288 4499.53 721.876 4510.54 730.274 4516.96 741.281 4525.73 756.09 4527.97 773.748 4528 790.684 4527.74 810.239 4524.15 831.108 4511.34 846.599 4498.68 862.161 4476.46 867.96 4457.36 863.064 4446.32 860.144 4437.82 852.117 4429.57 844.673 4429.57 866.846 4429.63 889.03 4429.51 911.203 4429.62 914.504 4425.93 915.417 4423.33 915.668 4418.1 916.049 4412.63 916.43 4407.58 914.805 4405.45 914.293 4404.9 911.996 4405.05 910.089 4405.05 850.582 4405.06 791.075 4405.05 731.558 4405.11 728.599 4404.74 725.569 4405.41 722.659 4406.77 720.351 4409.93 720.411 4412.3 720.141 4416.4 720.09 4420.75 719.639 4424.64 721.264 4426.41 721.866 4426.56 723.883 4426.61 725.468 4426.78 731.137 4426.71 736.806 4426.67 742.484 4435.54 733.515 4445.39 724.816 4457.56 720.753M4462.69 739.796C4449.83 742.665 4440.32 752.638 4431.97 762.18 4430.62 763.685 4429.24 765.41 4429.57 767.568 4429.59 783.681 4429.59 799.794 4429.57 815.908 4429.19 818.566 4431.39 820.382 4432.9 822.229 4439.01 828.84 4445.35 835.553 4453.33 839.927 4461.38 844.382 4471.48 844.914 4479.96 841.342 4488.31 837.629 4494.15 829.844 4497.4 821.486 4503.38 806.336 4503.55 789.52 4501.23 773.598 4499.52 763.002 4495.88 751.805 4487.22 744.852 4480.49 739.224 4471.05 738.11 4462.69 739.796Z" fill-rule="evenodd"/><path d="M4586.93 725.926C4600.63 718.098 4617.16 716.65 4632.54 719.066 4646.71 721.313 4660.09 729.33 4667.83 741.471 4676.54 755.01 4678.58 771.694 4677.87 787.439 4677.8 792.511 4672.91 796.285 4668.01 795.976 4638.82 796.056 4609.64 796.106 4580.45 796.106 4580.6 807.238 4581.8 819.12 4588.27 828.575 4593.72 836.752 4602.99 841.834 4612.63 843.302 4628.96 845.958 4645.84 843.002 4660.98 836.612 4663.55 835.644 4666.1 834.126 4668.95 834.286 4672.53 835.035 4672.07 839.598 4672.39 842.383 4672.25 846.377 4672.68 851.779 4668.57 854.025 4659.12 859.097 4648.4 861.234 4637.89 862.891 4618.54 865.367 4597.27 864.339 4580.64 853.116 4566.88 844.081 4559.34 828.245 4556.72 812.47 4553.92 795.267 4554.3 777.275 4559.6 760.571 4564.16 746.294 4573.6 733.234 4586.93 725.926M4587.53 753.462C4583.01 760.831 4580.75 769.447 4580.41 778.034 4604.73 778.034 4629.05 778.064 4653.38 778.024 4653.66 766.282 4651.03 753.452 4642.06 745.155 4633.67 737.517 4621.35 735.92 4610.49 737.707 4600.95 739.235 4592.64 745.445 4587.53 753.462Z" fill-rule="evenodd"/></g></svg>