<svg width="1881" height="540" xmlns="http://www.w3.org/2000/svg" xmlns:xlink="http://www.w3.org/1999/xlink" xml:space="preserve" overflow="hidden"><defs><clipPath id="clip0"><rect x="2797" y="1634" width="1881" height="540"/></clipPath></defs><g clip-path="url(#clip0)" transform="translate(-2797 -1634)"><path d="M3148.85 1665.49C3183.01 1663.21 3217.4 1669.01 3249.73 1680.06 3279.32 1690.41 3307.58 1705.52 3331.01 1726.63 3344.94 1739.54 3357.62 1754.56 3364.53 1772.51 3369.77 1785.88 3370.92 1801.35 3365.18 1814.76 3359.88 1827.74 3349.07 1837.54 3337.27 1844.54 3319.85 1854.78 3299.87 1859.67 3279.97 1861.92 3237.42 1866.1 3194.24 1857.94 3154.87 1841.68 3127.2 1829.93 3100.99 1813.74 3080.19 1791.76 3068.24 1778.68 3057.66 1763.53 3053.57 1745.99 3050.34 1732.79 3052.04 1718.25 3059.19 1706.6 3067.23 1693.41 3080.44 1684.25 3094.28 1678.03 3111.46 1670.38 3130.17 1666.71 3148.85 1665.49M3180.93 1702.08C3168.06 1703.53 3155.28 1707.47 3144.51 1714.83 3133.96 1722.15 3125.94 1733.81 3124.78 1746.86 3123.36 1760.45 3128.78 1773.83 3136.84 1784.52 3149.48 1801.25 3167.97 1812.74 3187.52 1819.58 3209.51 1827.1 3233.86 1829.31 3256.36 1822.73 3269.62 1818.74 3282.58 1811.34 3290.05 1799.27 3297.75 1787.61 3298.24 1772.23 3293.17 1759.44 3286.8 1743.17 3273.85 1730.4 3259.51 1720.99 3236.3 1706.36 3208.24 1699.26 3180.93 1702.08Z" fill="#FFFFFF" fill-rule="evenodd"/><path d="M2878.3 1871.12C3041.7 1735.71 3205.1 2006.54 3368.5 1871.12L3317.7 2114.88C3154.3 2250.29 2990.9 1979.46 2827.5 2114.88Z" stroke="#FFFFFF" stroke-width="38.9583" stroke-miterlimit="8" fill="#FFFFFF" fill-rule="evenodd"/><path d="M3041.16 1718.45C3057.57 1661.45 3147 1637.16 3240.91 1664.21 3334.81 1691.25 3397.62 1759.38 3381.21 1816.38 3364.79 1873.38 3275.36 1897.67 3181.46 1870.63 3087.56 1843.59 3024.74 1775.45 3041.16 1718.45Z" stroke="#FFFFFF" stroke-width="36.6667" stroke-miterlimit="8" fill="none" fill-rule="evenodd"/><path d="M3691.54 1802.7C3699.83 1801.78 3708.47 1801.46 3716.59 1803.67 3719.16 1804.15 3721.1 1806.34 3720.92 1808.98 3720.97 1873.35 3720.95 1937.73 3720.93 2002.1 3721.65 2006.34 3716.94 2007.82 3713.61 2008.24 3705.74 2009.25 3697.66 2009.29 3689.8 2008.14 3686.6 2007.74 3682.47 2006.02 3683.06 2002.15 3683.04 1937.77 3683.02 1873.39 3683.07 1809 3682.74 1804.47 3687.98 1803.18 3691.54 1802.7Z" fill="#FFFFFF" fill-rule="evenodd"/><path d="M3619.67 1807.6C3627.02 1806.73 3634.92 1806.41 3641.85 1809.44 3647.98 1812.29 3648.89 1819.95 3649 1825.92 3648.91 1832.01 3648.31 1839.62 3642.51 1843.12 3636.32 1846.32 3629.04 1846.19 3622.25 1845.8 3616.82 1845.34 3610.09 1843.95 3607.95 1838.2 3605.31 1830.97 3605.4 1822.65 3607.94 1815.39 3609.68 1810.5 3614.85 1808.22 3619.67 1807.6Z" fill="#FFFFFF" fill-rule="evenodd"/><path d="M3512.48 1813.58C3530 1811.69 3548.36 1814.31 3563.98 1822.75 3568.53 1824.91 3569.86 1830.16 3569.81 1834.8 3569.87 1841.36 3570.59 1848.27 3568.26 1854.55 3566.86 1857.54 3563.03 1856.4 3560.85 1855.01 3549.57 1848.57 3537.08 1843.11 3523.86 1843.39 3516.38 1843.4 3508.26 1845.32 3503.16 1851.18 3497.29 1858.24 3497.19 1869.69 3503.4 1876.59 3507.67 1881.56 3513.5 1884.77 3519.26 1887.69 3532.96 1894.27 3547.5 1899.47 3559.89 1908.48 3570.53 1916.3 3578.43 1928.17 3580.3 1941.39 3582.41 1956.29 3579.89 1972.31 3571.12 1984.78 3562.71 1997.34 3548.91 2005.34 3534.49 2008.99 3514.09 2014.12 3492.11 2012.66 3472.58 2004.86 3468.07 2002.96 3463.6 2000.7 3459.87 1997.49 3456.43 1994.18 3456.29 1988.99 3456.05 1984.53 3456 1979.03 3455.7 1973.34 3457.39 1968.03 3457.93 1965.68 3460.54 1964.18 3462.83 1964.96 3465.58 1965.82 3467.92 1967.55 3470.38 1968.99 3484.57 1977.48 3501.42 1982.27 3517.97 1979.94 3525.2 1978.85 3532.55 1975.6 3536.82 1969.4 3540.14 1964.36 3541.28 1957.97 3540.26 1952.05 3539.31 1946.63 3535.48 1942.28 3531.32 1938.96 3522.37 1932.12 3511.61 1928.46 3501.57 1923.61 3493.24 1919.57 3484.76 1915.47 3477.69 1909.39 3466.63 1900.34 3459.68 1886.39 3459.36 1872.04 3458.5 1857.79 3462.42 1842.84 3472.31 1832.27 3482.46 1820.82 3497.63 1815.29 3512.48 1813.58Z" fill="#FFFFFF" fill-rule="evenodd"/><path d="M4172.36 1831.82C4177.39 1830.72 4182.67 1830.84 4187.77 1831.52 4190.13 1831.84 4193.2 1833.21 4192.89 1836.09 4193.05 1846.54 4192.93 1857.01 4192.97 1867.46 4204.49 1867.49 4216.01 1867.47 4227.52 1867.61 4230.41 1867.53 4231.33 1870.84 4231.67 1873.14 4232.13 1877.2 4232.35 1881.58 4230.65 1885.4 4229.87 1887.38 4227.61 1888 4225.69 1887.86 4214.79 1887.88 4203.89 1887.97 4192.98 1887.94 4192.87 1910.77 4192.94 1933.61 4192.92 1956.46 4192.9 1965.39 4192.61 1974.92 4196.99 1983.02 4199.95 1988.57 4206.75 1990.45 4212.62 1990.1 4217.91 1990.03 4222.75 1987.73 4227.67 1986.13 4231.44 1985.17 4231.62 1990.05 4231.88 1992.54 4231.95 1997.02 4232.55 2002.52 4229.13 2005.98 4224.07 2009.61 4217.57 2010.06 4211.58 2010.85 4201.24 2011.48 4189.97 2010.28 4181.51 2003.72 4174.75 1998.53 4171.26 1990.18 4169.88 1981.95 4168.07 1972.21 4168.68 1962.26 4168.56 1952.41 4168.56 1930.91 4168.56 1909.42 4168.56 1887.93 4162.29 1887.81 4156.02 1887.97 4149.76 1887.76 4147.3 1887.78 4145.99 1885.32 4145.57 1883.21 4144.72 1879.09 4144.77 1874.7 4146.03 1870.65 4146.41 1868.94 4147.93 1867.54 4149.73 1867.61 4156.01 1867.37 4162.28 1867.49 4168.56 1867.43 4168.62 1856.99 4168.49 1846.54 4168.61 1836.11 4168.33 1833.8 4170.28 1832.19 4172.36 1831.82Z" fill="#FFFFFF" fill-rule="evenodd"/><path d="M3947.79 1863.6C3963.86 1861.89 3981.15 1863.52 3995.02 1872.54 4006.88 1880.06 4014.74 1892.89 4017.63 1906.55 4019.81 1915.69 4020.19 1925.14 4019.93 1934.51 4019.8 1937.88 4019.14 1941.56 4016.63 1944 4014.45 1946.31 4011.17 1946.98 4008.14 1946.98 3981.63 1947.05 3955.13 1947.06 3928.63 1947.07 3928.8 1955.85 3930.18 1965.17 3935.62 1972.35 3940.7 1979.09 3949.03 1982.5 3957.2 1983.44 3972.97 1985.12 3988.89 1981.92 4003.57 1976.16 4006.24 1975.31 4010.16 1973.62 4012.29 1976.35 4014.28 1980.43 4013.68 1985.21 4013.77 1989.63 4013.57 1994.21 4013.72 2000.16 4009.08 2002.66 4000.09 2007.16 3990.06 2009.02 3980.24 2010.63 3963.47 2012.92 3945.99 2012.68 3929.8 2007.32 3915.81 2002.6 3903.77 1992 3897.95 1978.27 3891.79 1963.94 3890.46 1947.99 3891.17 1932.53 3891.95 1915.68 3896.52 1898.38 3907.24 1885.1 3917.09 1872.7 3932.25 1865.3 3947.79 1863.6M3938.98 1896C3931.72 1902.83 3929.18 1913.2 3928.69 1922.86 3947.14 1922.84 3965.6 1922.88 3984.06 1922.85 3984.2 1914.96 3983.21 1906.68 3978.89 1899.89 3975.91 1894.98 3970.83 1891.6 3965.31 1890.27 3956.31 1888.11 3945.93 1889.44 3938.98 1896Z" fill="#FFFFFF" fill-rule="evenodd"/><path d="M4105.12 1865.85C4113.36 1861.92 4123.25 1862.32 4131.68 1865.43 4135.76 1866.88 4135.59 1871.87 4135.84 1875.4 4135.89 1883 4136.6 1890.83 4134.54 1898.25 4133.88 1900.93 4130.77 1901.62 4128.49 1900.61 4122.42 1898.6 4115.64 1896.33 4109.43 1899.18 4099.91 1903.48 4093.96 1912.57 4088.41 1920.96 4088.44 1948.03 4088.42 1975.11 4088.4 2002.17 4088.83 2005.12 4086.21 2007.28 4083.53 2007.76 4076.33 2009.36 4068.84 2009.11 4061.52 2008.67 4058.07 2008.18 4053.83 2008.13 4051.54 2005.09 4050.74 2002.84 4051.1 2000.4 4051.02 1998.06 4051.07 1956.15 4051.02 1914.24 4051.04 1872.33 4050.73 1869.96 4052.12 1867.57 4054.51 1866.95 4061.02 1864.97 4068.01 1865.33 4074.73 1865.84 4077.71 1866.29 4082.04 1866.71 4082.72 1870.32 4083.28 1876.05 4082.98 1881.82 4082.99 1887.58 4089.15 1879.28 4095.71 1870.69 4105.12 1865.85Z" fill="#FFFFFF" fill-rule="evenodd"/><path d="M3616.86 1865.74C3624.22 1864.76 3631.76 1864.7 3639.09 1865.92 3642.15 1866.49 3646.41 1868.01 3645.97 1871.91 3646.02 1914.97 3645.95 1958.02 3646 2001.09 3645.93 2002.89 3646.16 2005.18 3644.38 2006.28 3641.12 2008.46 3637.01 2008.56 3633.24 2008.86 3627.01 2009.05 3620.68 2009.26 3614.56 2007.95 3612.19 2007.36 3608.88 2006.23 3609.09 2003.18 3608.92 1960.11 3609.11 1917.03 3609 1873.96 3609.08 1872.12 3608.81 1870.08 3609.95 1868.51 3611.84 1866.79 3614.43 1866.2 3616.86 1865.74Z" fill="#FFFFFF" fill-rule="evenodd"/><path d="M3743.02 1870.05C3743.58 1866.59 3747.75 1865.99 3750.59 1865.53 3759.18 1864.92 3767.99 1864.46 3776.45 1866.35 3779.26 1866.82 3780.81 1869.39 3781.52 1871.94 3791.77 1905.06 3801.91 1938.21 3812.17 1971.32 3822.22 1937.95 3832.35 1904.62 3842.46 1871.26 3843.03 1868.87 3844.78 1866.81 3847.28 1866.36 3855.08 1864.5 3863.22 1864.94 3871.17 1865.45 3874.08 1865.79 3878.29 1866.38 3878.96 1869.89 3879.24 1874.56 3877.84 1879.15 3876.49 1883.57 3863.41 1923.06 3850.43 1962.6 3837.31 2002.08 3836.39 2005.67 3832.85 2007.61 3829.42 2008.05 3821.49 2009.26 3813.43 2008.96 3805.43 2008.97 3799.88 2008.71 3794.09 2008.86 3788.84 2006.76 3786.16 2005.71 3785.11 2002.76 3784.2 2000.27 3771.42 1961.55 3758.67 1922.82 3745.88 1884.1 3744.47 1879.55 3742.78 1874.9 3743.02 1870.05Z" fill="#FFFFFF" fill-rule="evenodd"/><path d="M4271.61 1872.73C4289.08 1865.22 4308.9 1863 4327.56 1866.87 4337.41 1868.98 4347.23 1873.84 4352.9 1882.42 4360.18 1892.85 4361.03 1906.08 4361 1918.38 4360.96 1947.02 4361.04 1975.65 4360.96 2004.28 4361.19 2008.54 4355.88 2008.96 4352.76 2009.11 4348.65 2008.98 4343.44 2009.83 4340.32 2006.63 4339.2 2001.8 4339.95 1996.71 4339.7 1991.78 4329.97 2001.48 4317.58 2009.21 4303.61 2010.67 4289.42 2012.01 4273.8 2009.48 4262.91 1999.69 4250.44 1988.24 4248.03 1968.73 4254.43 1953.61 4259.46 1942.12 4270.77 1934.78 4282.49 1931.2 4299.93 1925.54 4318.51 1926.48 4336.61 1926.37 4336.48 1915.99 4337.6 1904.63 4331.8 1895.41 4326.76 1887.38 4316.55 1884.92 4307.6 1884.8 4293.55 1884.15 4280.02 1889.37 4268.06 1896.29 4265.99 1897.38 4263.75 1898.88 4261.29 1898.36 4258.23 1897.1 4257.81 1893.41 4257.65 1890.55 4257.54 1886.75 4257.3 1882.23 4260.36 1879.4 4263.55 1876.37 4267.68 1874.6 4271.61 1872.73M4285.82 1950.67C4272.95 1958.51 4272.85 1980.05 4285.62 1988.03 4292.35 1992.27 4300.87 1992.7 4308.53 1991.24 4320 1988.83 4328.85 1980.46 4336.61 1972.24 4336.58 1962.85 4336.6 1953.48 4336.6 1944.09 4329.58 1944.08 4322.56 1943.95 4315.54 1944.01 4305.39 1944.16 4294.56 1945 4285.82 1950.67Z" fill="#FFFFFF" fill-rule="evenodd"/><path d="M4457.56 1867.74C4466.96 1864.32 4477.27 1864.42 4486.98 1866.28 4499.53 1868.86 4510.54 1877.21 4516.96 1888.16 4525.73 1902.9 4527.97 1920.47 4528 1937.32 4527.74 1956.77 4524.15 1977.54 4511.34 1992.95 4498.68 2008.43 4476.46 2014.2 4457.36 2009.33 4446.32 2006.43 4437.82 1998.44 4429.57 1991.03 4429.57 2013.09 4429.63 2035.17 4429.51 2057.23 4429.62 2060.51 4425.93 2061.42 4423.33 2061.67 4418.1 2062.05 4412.63 2062.43 4407.58 2060.81 4405.45 2060.3 4404.9 2058.02 4405.05 2056.12 4405.05 1996.91 4405.06 1937.71 4405.05 1878.49 4405.11 1875.54 4404.74 1872.53 4405.41 1869.64 4406.77 1867.34 4409.93 1867.4 4412.3 1867.13 4416.4 1867.08 4420.75 1866.63 4424.64 1868.25 4426.41 1868.85 4426.56 1870.85 4426.61 1872.43 4426.78 1878.07 4426.71 1883.71 4426.67 1889.36 4435.54 1880.44 4445.39 1871.78 4457.56 1867.74M4462.69 1886.69C4449.83 1889.54 4440.32 1899.46 4431.97 1908.96 4430.62 1910.45 4429.24 1912.17 4429.57 1914.32 4429.59 1930.35 4429.59 1946.38 4429.57 1962.41 4429.19 1965.06 4431.39 1966.87 4432.9 1968.7 4439.01 1975.28 4445.35 1981.96 4453.33 1986.31 4461.38 1990.74 4471.48 1991.27 4479.96 1987.72 4488.31 1984.03 4494.15 1976.28 4497.4 1967.96 4503.38 1952.89 4503.55 1936.16 4501.23 1920.32 4499.52 1909.77 4495.88 1898.63 4487.22 1891.72 4480.49 1886.12 4471.05 1885.01 4462.69 1886.69Z" fill="#FFFFFF" fill-rule="evenodd"/><path d="M4586.93 1872.93C4600.63 1865.1 4617.16 1863.65 4632.54 1866.07 4646.71 1868.31 4660.09 1876.33 4667.83 1888.47 4676.54 1902.01 4678.58 1918.69 4677.87 1934.44 4677.8 1939.51 4672.91 1943.29 4668.01 1942.98 4638.82 1943.06 4609.64 1943.11 4580.45 1943.11 4580.6 1954.24 4581.8 1966.12 4588.27 1975.57 4593.72 1983.75 4602.99 1988.83 4612.63 1990.3 4628.96 1992.96 4645.84 1990 4660.98 1983.61 4663.55 1982.64 4666.1 1981.13 4668.95 1981.29 4672.53 1982.03 4672.07 1986.6 4672.39 1989.38 4672.25 1993.38 4672.68 1998.78 4668.57 2001.03 4659.12 2006.1 4648.4 2008.23 4637.89 2009.89 4618.54 2012.37 4597.27 2011.34 4580.64 2000.12 4566.88 1991.08 4559.34 1975.25 4556.72 1959.47 4553.92 1942.27 4554.3 1924.28 4559.6 1907.57 4564.16 1893.29 4573.6 1880.23 4586.93 1872.93M4587.53 1900.46C4583.01 1907.83 4580.75 1916.45 4580.41 1925.03 4604.73 1925.03 4629.05 1925.06 4653.38 1925.02 4653.66 1913.28 4651.03 1900.45 4642.06 1892.16 4633.67 1884.52 4621.35 1882.92 4610.49 1884.71 4600.95 1886.23 4592.64 1892.44 4587.53 1900.46Z" fill="#FFFFFF" fill-rule="evenodd"/></g></svg>