<svg width="606" height="539" xmlns="http://www.w3.org/2000/svg" xmlns:xlink="http://www.w3.org/1999/xlink" xml:space="preserve" overflow="hidden"><g transform="translate(-10 -958)"><path d="M361.849 989.492C396.012 987.208 430.402 993.014 462.725 1004.06 492.316 1014.41 520.582 1029.52 544.008 1050.63 557.94 1063.54 570.62 1078.56 577.534 1096.51 582.774 1109.88 583.915 1125.35 578.182 1138.76 572.88 1151.74 562.071 1161.54 550.265 1168.54 532.85 1178.78 512.866 1183.67 492.974 1185.91 450.416 1190.1 407.243 1181.94 367.87 1165.68 340.2 1153.93 313.99 1137.74 293.194 1115.76 281.244 1102.68 270.662 1087.53 266.573 1069.99 263.336 1056.79 265.041 1042.25 272.193 1030.6 280.227 1017.41 293.441 1008.25 307.281 1002.03 324.46 994.378 343.17 990.711 361.849 989.492M393.926 1026.08C381.063 1027.53 368.281 1031.47 357.513 1038.83 346.961 1046.15 338.937 1057.81 337.776 1070.86 336.358 1084.45 341.783 1097.83 349.838 1108.52 362.476 1125.25 380.97 1136.74 400.523 1143.58 422.511 1151.1 446.861 1153.31 469.363 1146.73 482.617 1142.74 495.584 1135.34 503.053 1123.27 510.749 1111.61 511.242 1096.23 506.167 1083.44 499.796 1067.17 486.85 1054.4 472.507 1044.99 449.297 1030.36 421.236 1023.26 393.926 1026.08Z" fill="#7F7F7F" fill-rule="evenodd"/><path d="M91.2999 1194.13C254.7 1058.71 418.1 1329.54 581.5 1194.13L530.7 1437.88C367.3 1573.29 203.9 1302.46 40.5001 1437.88Z" stroke="#0070C0" stroke-width="38.9583" stroke-miterlimit="8" fill="#7F7F7F" fill-rule="evenodd"/><path d="M254.204 1041.87C270.619 984.864 360.05 960.578 453.952 987.62 547.855 1014.66 610.671 1082.79 594.255 1139.79 577.84 1196.8 488.41 1221.08 394.507 1194.04 300.604 1167 237.788 1098.87 254.204 1041.87Z" stroke="#0070C0" stroke-width="36.6667" stroke-miterlimit="8" fill="none" fill-rule="evenodd"/></g></svg>