<svg width="1884" height="539" xmlns="http://www.w3.org/2000/svg" xmlns:xlink="http://www.w3.org/1999/xlink" xml:space="preserve" overflow="hidden"><defs><clipPath id="clip0"><rect x="10" y="958" width="1884" height="539"/></clipPath></defs><g clip-path="url(#clip0)" transform="translate(-10 -958)"><path d="M361.849 989.492C396.012 987.208 430.402 993.014 462.725 1004.06 492.316 1014.41 520.582 1029.52 544.008 1050.63 557.94 1063.54 570.62 1078.56 577.534 1096.51 582.774 1109.88 583.915 1125.35 578.182 1138.76 572.88 1151.74 562.071 1161.54 550.265 1168.54 532.85 1178.78 512.866 1183.67 492.974 1185.91 450.416 1190.1 407.243 1181.94 367.87 1165.68 340.2 1153.93 313.99 1137.74 293.194 1115.76 281.244 1102.68 270.662 1087.53 266.573 1069.99 263.336 1056.79 265.041 1042.25 272.193 1030.6 280.227 1017.41 293.441 1008.25 307.281 1002.03 324.46 994.378 343.17 990.711 361.849 989.492M393.926 1026.08C381.063 1027.53 368.281 1031.47 357.513 1038.83 346.961 1046.15 338.937 1057.81 337.776 1070.86 336.358 1084.45 341.783 1097.83 349.838 1108.52 362.476 1125.25 380.97 1136.74 400.523 1143.58 422.511 1151.1 446.861 1153.31 469.363 1146.73 482.617 1142.74 495.584 1135.34 503.053 1123.27 510.749 1111.61 511.242 1096.23 506.167 1083.44 499.796 1067.17 486.85 1054.4 472.507 1044.99 449.297 1030.36 421.236 1023.26 393.926 1026.08Z" fill="#7F7F7F" fill-rule="evenodd"/><path d="M907.539 1124.7C915.828 1123.78 924.472 1123.46 932.588 1125.67 935.158 1126.15 937.099 1128.34 936.916 1130.98 936.967 1195.36 936.946 1259.73 936.926 1324.1 937.647 1328.34 932.944 1329.82 929.612 1330.24 921.74 1331.25 913.664 1331.29 905.802 1330.14 902.602 1329.74 898.467 1328.02 899.056 1324.15 899.036 1259.77 899.016 1195.39 899.067 1131 898.742 1126.47 903.983 1125.18 907.539 1124.7Z" fill="#7F7F7F" fill-rule="evenodd"/><path d="M835.668 1129.6C843.019 1128.73 850.919 1128.41 857.849 1131.44 863.98 1134.29 864.89 1141.95 865 1147.92 864.91 1154.01 864.31 1161.62 858.51 1165.12 852.319 1168.32 845.039 1168.19 838.248 1167.8 832.818 1167.34 826.088 1165.95 823.948 1160.2 821.307 1152.97 821.397 1144.64 823.938 1137.39 825.678 1132.5 830.848 1130.22 835.668 1129.6Z" fill="#7F7F7F" fill-rule="evenodd"/><path d="M728.482 1135.58C745.999 1133.69 764.365 1136.31 779.981 1144.75 784.533 1146.91 785.863 1152.16 785.813 1156.8 785.873 1163.36 786.593 1170.27 784.263 1176.55 782.862 1179.54 779.031 1178.4 776.85 1177.01 765.566 1170.57 753.081 1165.11 739.857 1165.39 732.384 1165.4 724.261 1167.32 719.159 1173.18 713.287 1180.24 713.187 1191.69 719.399 1198.59 723.671 1203.56 729.503 1206.77 735.265 1209.69 748.96 1216.27 763.505 1221.47 775.89 1230.48 786.533 1238.3 794.426 1250.17 796.297 1263.39 798.408 1278.29 795.887 1294.31 787.124 1306.78 778.711 1319.34 764.906 1327.34 750.49 1330.99 730.093 1336.12 708.115 1334.66 688.578 1326.86 684.066 1324.96 679.605 1322.7 675.874 1319.49 672.432 1316.18 672.292 1310.99 672.052 1306.53 672.002 1301.03 671.702 1295.34 673.393 1290.03 673.933 1287.68 676.544 1286.18 678.835 1286.96 681.576 1287.82 683.916 1289.55 686.377 1290.99 700.572 1299.48 717.418 1304.27 733.974 1301.94 741.197 1300.85 748.55 1297.6 752.821 1291.4 756.142 1286.36 757.283 1279.97 756.262 1274.05 755.312 1268.63 751.481 1264.28 747.319 1260.96 738.366 1254.12 727.612 1250.46 717.569 1245.61 709.235 1241.57 700.762 1237.47 693.69 1231.39 682.626 1222.34 675.683 1208.39 675.363 1194.04 674.503 1179.79 678.424 1164.84 688.308 1154.27 698.462 1142.82 713.627 1137.29 728.482 1135.58Z" fill="#7F7F7F" fill-rule="evenodd"/><path d="M1388.36 1153.82C1393.39 1152.72 1398.67 1152.84 1403.77 1153.52 1406.13 1153.84 1409.2 1155.21 1408.89 1158.09 1409.05 1168.54 1408.93 1179.01 1408.97 1189.46 1420.49 1189.49 1432.01 1189.47 1443.52 1189.61 1446.41 1189.53 1447.33 1192.84 1447.67 1195.14 1448.13 1199.2 1448.35 1203.58 1446.65 1207.4 1445.87 1209.38 1443.61 1210 1441.69 1209.86 1430.79 1209.88 1419.89 1209.97 1408.98 1209.94 1408.87 1232.77 1408.94 1255.61 1408.92 1278.46 1408.9 1287.39 1408.61 1296.92 1412.99 1305.02 1415.95 1310.57 1422.75 1312.45 1428.62 1312.1 1433.91 1312.03 1438.75 1309.73 1443.67 1308.13 1447.44 1307.17 1447.62 1312.05 1447.88 1314.54 1447.95 1319.02 1448.55 1324.52 1445.13 1327.98 1440.07 1331.61 1433.57 1332.06 1427.58 1332.85 1417.24 1333.48 1405.97 1332.28 1397.51 1325.72 1390.74 1320.53 1387.26 1312.18 1385.88 1303.95 1384.07 1294.21 1384.68 1284.26 1384.56 1274.41 1384.56 1252.91 1384.56 1231.42 1384.56 1209.93 1378.29 1209.81 1372.02 1209.97 1365.76 1209.76 1363.3 1209.78 1361.99 1207.32 1361.57 1205.21 1360.72 1201.08 1360.77 1196.7 1362.03 1192.65 1362.41 1190.94 1363.93 1189.54 1365.73 1189.61 1372.01 1189.37 1378.28 1189.49 1384.56 1189.43 1384.62 1178.99 1384.49 1168.54 1384.61 1158.11 1384.33 1155.8 1386.28 1154.19 1388.36 1153.82Z" fill="#0070C0" fill-rule="evenodd"/><path d="M1163.79 1185.6C1179.86 1183.89 1197.15 1185.52 1211.02 1194.54 1222.88 1202.06 1230.74 1214.89 1233.63 1228.55 1235.81 1237.69 1236.19 1247.14 1235.93 1256.51 1235.8 1259.88 1235.14 1263.56 1232.63 1266 1230.45 1268.31 1227.17 1268.98 1224.14 1268.98 1197.63 1269.05 1171.13 1269.06 1144.63 1269.07 1144.8 1277.85 1146.18 1287.17 1151.62 1294.35 1156.7 1301.09 1165.03 1304.5 1173.2 1305.44 1188.97 1307.12 1204.89 1303.92 1219.57 1298.16 1222.24 1297.31 1226.16 1295.62 1228.29 1298.35 1230.28 1302.43 1229.68 1307.21 1229.77 1311.63 1229.57 1316.21 1229.72 1322.16 1225.08 1324.66 1216.09 1329.16 1206.06 1331.02 1196.24 1332.63 1179.47 1334.92 1161.98 1334.68 1145.79 1329.32 1131.81 1324.6 1119.77 1314 1113.95 1300.27 1107.79 1285.94 1106.46 1269.99 1107.17 1254.53 1107.95 1237.68 1112.52 1220.38 1123.24 1207.1 1133.09 1194.7 1148.25 1187.3 1163.79 1185.6M1154.98 1217.99C1147.72 1224.83 1145.18 1235.2 1144.69 1244.86 1163.14 1244.84 1181.6 1244.88 1200.06 1244.85 1200.2 1236.96 1199.21 1228.68 1194.89 1221.89 1191.91 1216.98 1186.83 1213.6 1181.31 1212.27 1172.31 1210.11 1161.93 1211.44 1154.98 1217.99Z" fill="#7F7F7F" fill-rule="evenodd"/><path d="M1321.12 1187.85C1329.36 1183.92 1339.25 1184.32 1347.68 1187.43 1351.76 1188.88 1351.59 1193.87 1351.84 1197.4 1351.89 1205 1352.6 1212.83 1350.54 1220.24 1349.88 1222.93 1346.77 1223.62 1344.49 1222.61 1338.42 1220.6 1331.64 1218.33 1325.43 1221.18 1315.91 1225.48 1309.96 1234.57 1304.41 1242.96 1304.44 1270.03 1304.42 1297.11 1304.4 1324.17 1304.83 1327.12 1302.21 1329.28 1299.53 1329.76 1292.33 1331.37 1284.84 1331.11 1277.52 1330.67 1274.07 1330.18 1269.83 1330.13 1267.54 1327.09 1266.74 1324.84 1267.1 1322.4 1267.02 1320.06 1267.07 1278.15 1267.02 1236.24 1267.04 1194.33 1266.73 1191.96 1268.13 1189.57 1270.51 1188.95 1277.02 1186.97 1284.01 1187.33 1290.73 1187.84 1293.71 1188.29 1298.04 1188.71 1298.72 1192.32 1299.28 1198.05 1298.98 1203.82 1298.99 1209.58 1305.15 1201.28 1311.71 1192.69 1321.12 1187.85Z" fill="#7F7F7F" fill-rule="evenodd"/><path d="M832.858 1187.74C840.22 1186.76 847.76 1186.7 855.092 1187.92 858.148 1188.49 862.414 1190.01 861.968 1193.91 862.017 1236.97 861.948 1280.02 861.997 1323.09 861.928 1324.89 862.156 1327.18 860.38 1328.28 857.116 1330.46 853.009 1330.56 849.238 1330.86 843.008 1331.05 836.678 1331.26 830.556 1329.95 828.195 1329.36 824.881 1328.23 825.089 1325.18 824.921 1282.11 825.109 1239.03 825 1195.96 825.079 1194.12 824.811 1192.08 825.952 1190.51 827.838 1188.79 830.427 1188.2 832.858 1187.74Z" fill="#7F7F7F" fill-rule="evenodd"/><path d="M959.025 1192.05C959.581 1188.59 963.748 1187.99 966.593 1187.53 975.175 1186.92 983.987 1186.46 992.45 1188.35 995.264 1188.82 996.806 1191.39 997.522 1193.94 1007.77 1227.06 1017.91 1260.21 1028.17 1293.32 1038.22 1259.95 1048.35 1226.62 1058.46 1193.26 1059.03 1190.87 1060.78 1188.81 1063.28 1188.36 1071.08 1186.5 1079.22 1186.94 1087.17 1187.45 1090.08 1187.79 1094.29 1188.38 1094.96 1191.89 1095.24 1196.56 1093.84 1201.15 1092.49 1205.57 1079.41 1245.07 1066.43 1284.6 1053.31 1324.08 1052.39 1327.67 1048.85 1329.61 1045.42 1330.05 1037.49 1331.26 1029.43 1330.96 1021.43 1330.97 1015.88 1330.71 1010.09 1330.86 1004.84 1328.76 1002.16 1327.71 1001.11 1324.76 1000.2 1322.28 987.418 1283.56 974.668 1244.82 961.879 1206.1 960.467 1201.55 958.776 1196.9 959.025 1192.05Z" fill="#7F7F7F" fill-rule="evenodd"/><path d="M1487.61 1194.73C1505.08 1187.22 1524.9 1185 1543.56 1188.87 1553.41 1190.98 1563.23 1195.84 1568.9 1204.42 1576.18 1214.85 1577.03 1228.08 1577 1240.38 1576.96 1269.02 1577.04 1297.65 1576.96 1326.28 1577.19 1330.54 1571.88 1330.96 1568.76 1331.11 1564.65 1330.98 1559.44 1331.83 1556.32 1328.64 1555.2 1323.8 1555.95 1318.71 1555.7 1313.78 1545.97 1323.48 1533.58 1331.21 1519.61 1332.67 1505.42 1334.01 1489.8 1331.48 1478.91 1321.69 1466.44 1310.24 1464.03 1290.73 1470.43 1275.61 1475.46 1264.12 1486.77 1256.78 1498.49 1253.2 1515.93 1247.54 1534.51 1248.48 1552.61 1248.37 1552.48 1237.99 1553.6 1226.63 1547.8 1217.41 1542.76 1209.38 1532.55 1206.92 1523.6 1206.8 1509.55 1206.15 1496.02 1211.37 1484.06 1218.29 1481.99 1219.38 1479.75 1220.88 1477.29 1220.37 1474.23 1219.1 1473.81 1215.41 1473.65 1212.55 1473.54 1208.75 1473.3 1204.23 1476.36 1201.4 1479.55 1198.37 1483.68 1196.6 1487.61 1194.73M1501.82 1272.67C1488.95 1280.51 1488.85 1302.05 1501.62 1310.03 1508.35 1314.27 1516.87 1314.7 1524.53 1313.24 1536 1310.83 1544.85 1302.46 1552.61 1294.24 1552.58 1284.85 1552.6 1275.48 1552.6 1266.09 1545.58 1266.08 1538.56 1265.95 1531.54 1266.01 1521.39 1266.16 1510.57 1267 1501.82 1272.67Z" fill="#0070C0" fill-rule="evenodd"/><path d="M1673.56 1189.74C1682.96 1186.32 1693.27 1186.42 1702.98 1188.28 1715.53 1190.86 1726.54 1199.21 1732.96 1210.16 1741.73 1224.9 1743.97 1242.47 1744 1259.32 1743.74 1278.77 1740.15 1299.54 1727.34 1314.95 1714.68 1330.43 1692.47 1336.2 1673.36 1331.33 1662.32 1328.43 1653.82 1320.44 1645.57 1313.03 1645.57 1335.09 1645.63 1357.17 1645.51 1379.23 1645.62 1382.51 1641.93 1383.42 1639.33 1383.67 1634.1 1384.05 1628.63 1384.43 1623.58 1382.81 1621.45 1382.3 1620.9 1380.02 1621.05 1378.12 1621.05 1318.91 1621.06 1259.71 1621.05 1200.49 1621.11 1197.54 1620.74 1194.53 1621.41 1191.64 1622.77 1189.34 1625.93 1189.4 1628.3 1189.13 1632.4 1189.08 1636.75 1188.63 1640.64 1190.25 1642.41 1190.85 1642.56 1192.85 1642.61 1194.43 1642.78 1200.07 1642.71 1205.71 1642.67 1211.36 1651.54 1202.44 1661.39 1193.78 1673.56 1189.74M1678.69 1208.69C1665.83 1211.54 1656.32 1221.46 1647.97 1230.96 1646.62 1232.45 1645.24 1234.17 1645.57 1236.32 1645.59 1252.35 1645.59 1268.38 1645.57 1284.41 1645.19 1287.06 1647.39 1288.87 1648.9 1290.7 1655.01 1297.28 1661.35 1303.96 1669.33 1308.31 1677.38 1312.74 1687.48 1313.27 1695.96 1309.72 1704.31 1306.03 1710.15 1298.28 1713.4 1289.96 1719.38 1274.89 1719.55 1258.16 1717.23 1242.32 1715.52 1231.78 1711.88 1220.63 1703.22 1213.72 1696.49 1208.12 1687.05 1207.01 1678.69 1208.69Z" fill="#0070C0" fill-rule="evenodd"/><path d="M1802.93 1194.93C1816.63 1187.1 1833.16 1185.65 1848.54 1188.07 1862.71 1190.31 1876.09 1198.33 1883.83 1210.47 1892.54 1224.01 1894.58 1240.69 1893.87 1256.44 1893.8 1261.51 1888.91 1265.29 1884.01 1264.98 1854.82 1265.06 1825.64 1265.11 1796.45 1265.11 1796.6 1276.24 1797.8 1288.12 1804.27 1297.57 1809.72 1305.75 1818.99 1310.83 1828.63 1312.3 1844.96 1314.96 1861.84 1312 1876.98 1305.61 1879.55 1304.64 1882.1 1303.13 1884.95 1303.29 1888.53 1304.03 1888.07 1308.6 1888.39 1311.38 1888.25 1315.38 1888.68 1320.78 1884.57 1323.03 1875.12 1328.1 1864.4 1330.23 1853.89 1331.89 1834.54 1334.37 1813.27 1333.34 1796.64 1322.12 1782.88 1313.08 1775.34 1297.25 1772.72 1281.47 1769.92 1264.27 1770.3 1246.28 1775.6 1229.57 1780.16 1215.29 1789.6 1202.23 1802.93 1194.93M1803.53 1222.46C1799.01 1229.83 1796.75 1238.45 1796.41 1247.03 1820.73 1247.03 1845.05 1247.06 1869.37 1247.02 1869.66 1235.28 1867.03 1222.45 1858.06 1214.16 1849.67 1206.52 1837.35 1204.92 1826.49 1206.71 1816.95 1208.23 1808.64 1214.44 1803.53 1222.46Z" fill="#0070C0" fill-rule="evenodd"/><path d="M91.2999 1194.13C254.7 1058.71 418.1 1329.54 581.5 1194.13L530.7 1437.88C367.3 1573.29 203.9 1302.46 40.5001 1437.88Z" stroke="#0070C0" stroke-width="38.9583" stroke-miterlimit="8" fill="#7F7F7F" fill-rule="evenodd"/><path d="M254.204 1041.87C270.619 984.864 360.05 960.578 453.952 987.62 547.855 1014.66 610.671 1082.79 594.255 1139.79 577.84 1196.8 488.41 1221.08 394.507 1194.04 300.604 1167 237.788 1098.87 254.204 1041.87Z" stroke="#0070C0" stroke-width="36.6667" stroke-miterlimit="8" fill="none" fill-rule="evenodd"/></g></svg>